<svg width="800" height="800" xmlns="http://www.w3.org/2000/svg" version="1.1">
  <text x="400.0" y="30" text-anchor="middle" font-family="sans-serif" font-size="24" fill="blue">tok/sec</text>
  <path d="M 80.00,740.00 80.00,80.00 M 128.57,740.00 128.57,80.00 M 177.14,740.00 177.14,80.00 M 225.71,740.00 225.71,80.00 M 274.29,740.00 274.29,80.00 M 322.86,740.00 322.86,80.00 M 371.43,740.00 371.43,80.00 M 420.00,740.00 420.00,80.00 M 468.57,740.00 468.57,80.00 M 517.14,740.00 517.14,80.00 M 565.71,740.00 565.71,80.00 M 614.29,740.00 614.29,80.00 M 662.86,740.00 662.86,80.00 M 711.43,740.00 711.43,80.00 M 760.00,740.00 760.00,80.00" stroke="#ddd" stroke-width="1" fill="none"/>
  <path d="M 80.00,740.00 80.00,744.00 M 128.57,740.00 128.57,744.00 M 177.14,740.00 177.14,744.00 M 225.71,740.00 225.71,744.00 M 274.29,740.00 274.29,744.00 M 322.86,740.00 322.86,744.00 M 371.43,740.00 371.43,744.00 M 420.00,740.00 420.00,744.00 M 468.57,740.00 468.57,744.00 M 517.14,740.00 517.14,744.00 M 565.71,740.00 565.71,744.00 M 614.29,740.00 614.29,744.00 M 662.86,740.00 662.86,744.00 M 711.43,740.00 711.43,744.00 M 760.00,740.00 760.00,744.00" stroke="#777" stroke-width="1" fill="none"/>
  <text x="80.00" y="756.00" text-anchor="middle" font-family="sans-serif" font-size="14" fill="#777">1306</text>
  <text x="128.57" y="756.00" text-anchor="middle" font-family="sans-serif" font-size="14" fill="#777">1887</text>
  <text x="177.14" y="756.00" text-anchor="middle" font-family="sans-serif" font-size="14" fill="#777">2469</text>
  <text x="225.71" y="756.00" text-anchor="middle" font-family="sans-serif" font-size="14" fill="#777">305</text>
  <text x="274.29" y="756.00" text-anchor="middle" font-family="sans-serif" font-size="14" fill="#777">3632</text>
  <text x="322.86" y="756.00" text-anchor="middle" font-family="sans-serif" font-size="14" fill="#777">4213</text>
  <text x="371.43" y="756.00" text-anchor="middle" font-family="sans-serif" font-size="14" fill="#777">4795</text>
  <text x="420.00" y="756.00" text-anchor="middle" font-family="sans-serif" font-size="14" fill="#777">5376</text>
  <text x="468.57" y="756.00" text-anchor="middle" font-family="sans-serif" font-size="14" fill="#777">5957</text>
  <text x="517.14" y="756.00" text-anchor="middle" font-family="sans-serif" font-size="14" fill="#777">6539</text>
  <text x="565.71" y="756.00" text-anchor="middle" font-family="sans-serif" font-size="14" fill="#777">712</text>
  <text x="614.29" y="756.00" text-anchor="middle" font-family="sans-serif" font-size="14" fill="#777">7702</text>
  <text x="662.86" y="756.00" text-anchor="middle" font-family="sans-serif" font-size="14" fill="#777">8283</text>
  <text x="711.43" y="756.00" text-anchor="middle" font-family="sans-serif" font-size="14" fill="#777">8865</text>
  <text x="760.00" y="756.00" text-anchor="middle" font-family="sans-serif" font-size="14" fill="#777">9446</text>
  <path d="M 80.00,740.00 760.00,740.00 M 80.00,692.86 760.00,692.86 M 80.00,645.71 760.00,645.71 M 80.00,598.57 760.00,598.57 M 80.00,551.43 760.00,551.43 M 80.00,504.29 760.00,504.29 M 80.00,457.14 760.00,457.14 M 80.00,410.00 760.00,410.00 M 80.00,362.86 760.00,362.86 M 80.00,315.71 760.00,315.71 M 80.00,268.57 760.00,268.57 M 80.00,221.43 760.00,221.43 M 80.00,174.29 760.00,174.29 M 80.00,127.14 760.00,127.14 M 80.00,80.00 760.00,80.00" stroke="#ddd" stroke-width="1" fill="none"/>
  <path d="M 76.00,740.00 80.00,740.00 M 76.00,692.86 80.00,692.86 M 76.00,645.71 80.00,645.71 M 76.00,598.57 80.00,598.57 M 76.00,551.43 80.00,551.43 M 76.00,504.29 80.00,504.29 M 76.00,457.14 80.00,457.14 M 76.00,410.00 80.00,410.00 M 76.00,362.86 80.00,362.86 M 76.00,315.71 80.00,315.71 M 76.00,268.57 80.00,268.57 M 76.00,221.43 80.00,221.43 M 76.00,174.29 80.00,174.29 M 76.00,127.14 80.00,127.14 M 76.00,80.00 80.00,80.00" stroke="#777" stroke-width="1" fill="none"/>
  <text x="72.00" y="744.00" text-anchor="end" font-family="sans-serif" font-size="14" fill="#777">25.57</text>
  <text x="72.00" y="696.86" text-anchor="end" font-family="sans-serif" font-size="14" fill="#777">28.16</text>
  <text x="72.00" y="649.71" text-anchor="end" font-family="sans-serif" font-size="14" fill="#777">30.75</text>
  <text x="72.00" y="602.57" text-anchor="end" font-family="sans-serif" font-size="14" fill="#777">33.34</text>
  <text x="72.00" y="555.43" text-anchor="end" font-family="sans-serif" font-size="14" fill="#777">35.93</text>
  <text x="72.00" y="508.29" text-anchor="end" font-family="sans-serif" font-size="14" fill="#777">38.52</text>
  <text x="72.00" y="461.14" text-anchor="end" font-family="sans-serif" font-size="14" fill="#777">41.11</text>
  <text x="72.00" y="414.00" text-anchor="end" font-family="sans-serif" font-size="14" fill="#777">43.7</text>
  <text x="72.00" y="366.86" text-anchor="end" font-family="sans-serif" font-size="14" fill="#777">46.29</text>
  <text x="72.00" y="319.71" text-anchor="end" font-family="sans-serif" font-size="14" fill="#777">48.88</text>
  <text x="72.00" y="272.57" text-anchor="end" font-family="sans-serif" font-size="14" fill="#777">51.47</text>
  <text x="72.00" y="225.43" text-anchor="end" font-family="sans-serif" font-size="14" fill="#777">54.06</text>
  <text x="72.00" y="178.29" text-anchor="end" font-family="sans-serif" font-size="14" fill="#777">56.65</text>
  <text x="72.00" y="131.14" text-anchor="end" font-family="sans-serif" font-size="14" fill="#777">59.24</text>
  <text x="72.00" y="84.00" text-anchor="end" font-family="sans-serif" font-size="14" fill="#777">61.83</text>
  <path d="M 80.00,740.00 L 760.00,740.00 M 80.00,740.00 L 80.00,80.00" stroke="#777" stroke-width="2" fill="none"/>
  <circle cx="99.25" cy="98.68" r="5" fill="red"/>
  <text x="69.24528301886794" y="88.67924528301876" font-family="sans-serif" font-size="12" fill="red">(1536, 60.8)</text>
  <circle cx="227.55" cy="196.99" r="5" fill="red"/>
  <text x="197.54716981132077" y="214.99106256206562" font-family="sans-serif" font-size="12" fill="red">(3072, 55.4)</text>
  <circle cx="355.85" cy="288.02" r="5" fill="red"/>
  <text x="325.8490566037736" y="278.0205230056273" font-family="sans-serif" font-size="12" fill="red">(4608, 50.4)</text>
  <circle cx="484.15" cy="340.82" r="5" fill="red"/>
  <text x="454.1509433962264" y="358.8176100628931" font-family="sans-serif" font-size="12" fill="red">(6144, 47.5)</text>
  <circle cx="612.45" cy="382.69" r="5" fill="red"/>
  <text x="582.4528301886793" y="372.6911618669314" font-family="sans-serif" font-size="12" fill="red">(7680, 45.2)</text>
  <circle cx="740.75" cy="455.51" r="5" fill="red"/>
  <text x="710.7547169811321" y="473.5147302217808" font-family="sans-serif" font-size="12" fill="red">(9216, 41.2)</text>
  <polyline points="99.25,98.68 227.55,196.99 355.85,288.02 484.15,340.82 612.45,382.69 740.75,455.51" fill="none" stroke="red" stroke-width="1"/>
  <circle cx="99.25" cy="280.74" r="5" fill="blue"/>
  <text x="69.24528301886794" y="270.7381661701424" font-family="sans-serif" font-size="12" fill="blue">(1536, 50.8)</text>
  <circle cx="227.55" cy="364.49" r="5" fill="blue"/>
  <text x="197.54716981132077" y="382.48526977821905" font-family="sans-serif" font-size="12" fill="blue">(3072, 46.2)</text>
  <circle cx="355.85" cy="424.56" r="5" fill="blue"/>
  <text x="325.8490566037736" y="414.56471367096987" font-family="sans-serif" font-size="12" fill="blue">(4608, 42.9)</text>
  <circle cx="484.15" cy="460.98" r="5" fill="blue"/>
  <text x="454.1509433962264" y="478.9764978483946" font-family="sans-serif" font-size="12" fill="blue">(6144, 40.9)</text>
  <circle cx="612.45" cy="486.46" r="5" fill="blue"/>
  <text x="582.4528301886793" y="476.46474677259187" font-family="sans-serif" font-size="12" fill="blue">(7680, 39.5)</text>
  <circle cx="740.75" cy="535.62" r="5" fill="blue"/>
  <text x="710.7547169811321" y="553.6206554121152" font-family="sans-serif" font-size="12" fill="blue">(9216, 36.8)</text>
  <polyline points="99.25,280.74 227.55,364.49 355.85,424.56 484.15,460.98 612.45,486.46 740.75,535.62" fill="none" stroke="blue" stroke-width="1"/>
  <circle cx="99.25" cy="422.74" r="5" fill="green"/>
  <text x="69.24528301886794" y="412.7441244620987" font-family="sans-serif" font-size="12" fill="green">(1536, 43)</text>
  <circle cx="227.55" cy="486.46" r="5" fill="green"/>
  <text x="197.54716981132077" y="504.46474677259187" font-family="sans-serif" font-size="12" fill="green">(3072, 39.5)</text>
  <circle cx="355.85" cy="526.52" r="5" fill="green"/>
  <text x="325.8490566037736" y="516.517709367759" font-family="sans-serif" font-size="12" fill="green">(4608, 37.3)</text>
  <circle cx="484.15" cy="559.29" r="5" fill="green"/>
  <text x="454.1509433962264" y="577.2883151274413" font-family="sans-serif" font-size="12" fill="green">(6144, 35.5)</text>
  <circle cx="612.45" cy="568.39" r="5" fill="green"/>
  <text x="582.4528301886793" y="558.3912611717974" font-family="sans-serif" font-size="12" fill="green">(7680, 35)</text>
  <circle cx="740.75" cy="608.44" r="5" fill="green"/>
  <text x="710.7547169811321" y="626.4442237669647" font-family="sans-serif" font-size="12" fill="green">(9216, 32.8)</text>
  <polyline points="99.25,422.74 227.55,486.46 355.85,526.52 484.15,559.29 612.45,568.39 740.75,608.44" fill="none" stroke="green" stroke-width="1"/>
  <circle cx="99.25" cy="612.09" r="5" fill="purple"/>
  <text x="69.24528301886794" y="602.085402184707" font-family="sans-serif" font-size="12" fill="purple">(1536, 32.6)</text>
  <circle cx="227.55" cy="650.32" r="5" fill="purple"/>
  <text x="197.54716981132077" y="668.317775571003" font-family="sans-serif" font-size="12" fill="purple">(3072, 30.5)</text>
  <circle cx="355.85" cy="672.16" r="5" fill="purple"/>
  <text x="325.8490566037736" y="662.1648460774578" font-family="sans-serif" font-size="12" fill="purple">(4608, 29.3)</text>
  <circle cx="484.15" cy="684.91" r="5" fill="purple"/>
  <text x="454.1509433962264" y="702.9089705395564" font-family="sans-serif" font-size="12" fill="purple">(6144, 28.6)</text>
  <circle cx="612.45" cy="695.83" r="5" fill="purple"/>
  <text x="582.4528301886793" y="685.8325057927839" font-family="sans-serif" font-size="12" fill="purple">(7680, 28)</text>
  <circle cx="740.75" cy="721.32" r="5" fill="purple"/>
  <text x="710.7547169811321" y="739.3207547169811" font-family="sans-serif" font-size="12" fill="purple">(9216, 26.6)</text>
  <polyline points="99.25,612.09 227.55,650.32 355.85,672.16 484.15,684.91 612.45,695.83 740.75,721.32" fill="none" stroke="purple" stroke-width="1"/>
  <text x="750" y="30" font-family="sans-serif" font-size="16" fill="red">1k</text>
  <text x="750" y="50" font-family="sans-serif" font-size="16" fill="blue">125k</text>
  <text x="750" y="70" font-family="sans-serif" font-size="16" fill="green">250k</text>
  <text x="750" y="90" font-family="sans-serif" font-size="16" fill="purple">500k</text>
</svg>