<svg width="800" height="800" xmlns="http://www.w3.org/2000/svg" version="1.1">
  <text x="400.0" y="30" text-anchor="middle" font-family="sans-serif" font-size="24" fill="blue">tok/sec</text>
  <path d="M 80.00,740.00 80.00,80.00 M 128.57,740.00 128.57,80.00 M 177.14,740.00 177.14,80.00 M 225.71,740.00 225.71,80.00 M 274.29,740.00 274.29,80.00 M 322.86,740.00 322.86,80.00 M 371.43,740.00 371.43,80.00 M 420.00,740.00 420.00,80.00 M 468.57,740.00 468.57,80.00 M 517.14,740.00 517.14,80.00 M 565.71,740.00 565.71,80.00 M 614.29,740.00 614.29,80.00 M 662.86,740.00 662.86,80.00 M 711.43,740.00 711.43,80.00 M 760.00,740.00 760.00,80.00" stroke="#ddd" stroke-width="1" fill="none"/>
  <path d="M 80.00,740.00 80.00,744.00 M 128.57,740.00 128.57,744.00 M 177.14,740.00 177.14,744.00 M 225.71,740.00 225.71,744.00 M 274.29,740.00 274.29,744.00 M 322.86,740.00 322.86,744.00 M 371.43,740.00 371.43,744.00 M 420.00,740.00 420.00,744.00 M 468.57,740.00 468.57,744.00 M 517.14,740.00 517.14,744.00 M 565.71,740.00 565.71,744.00 M 614.29,740.00 614.29,744.00 M 662.86,740.00 662.86,744.00 M 711.43,740.00 711.43,744.00 M 760.00,740.00 760.00,744.00" stroke="#777" stroke-width="1" fill="none"/>
  <text x="80.00" y="756.00" text-anchor="middle" font-family="sans-serif" font-size="14" fill="#777">1121</text>
  <text x="128.57" y="756.00" text-anchor="middle" font-family="sans-serif" font-size="14" fill="#777">2168</text>
  <text x="177.14" y="756.00" text-anchor="middle" font-family="sans-serif" font-size="14" fill="#777">3215</text>
  <text x="225.71" y="756.00" text-anchor="middle" font-family="sans-serif" font-size="14" fill="#777">4261</text>
  <text x="274.29" y="756.00" text-anchor="middle" font-family="sans-serif" font-size="14" fill="#777">5308</text>
  <text x="322.86" y="756.00" text-anchor="middle" font-family="sans-serif" font-size="14" fill="#777">6355</text>
  <text x="371.43" y="756.00" text-anchor="middle" font-family="sans-serif" font-size="14" fill="#777">7401</text>
  <text x="420.00" y="756.00" text-anchor="middle" font-family="sans-serif" font-size="14" fill="#777">8448</text>
  <text x="468.57" y="756.00" text-anchor="middle" font-family="sans-serif" font-size="14" fill="#777">9495</text>
  <text x="517.14" y="756.00" text-anchor="middle" font-family="sans-serif" font-size="14" fill="#777">10541</text>
  <text x="565.71" y="756.00" text-anchor="middle" font-family="sans-serif" font-size="14" fill="#777">11588</text>
  <text x="614.29" y="756.00" text-anchor="middle" font-family="sans-serif" font-size="14" fill="#777">12635</text>
  <text x="662.86" y="756.00" text-anchor="middle" font-family="sans-serif" font-size="14" fill="#777">13681</text>
  <text x="711.43" y="756.00" text-anchor="middle" font-family="sans-serif" font-size="14" fill="#777">14728</text>
  <text x="760.00" y="756.00" text-anchor="middle" font-family="sans-serif" font-size="14" fill="#777">15775</text>
  <path d="M 80.00,740.00 760.00,740.00 M 80.00,692.86 760.00,692.86 M 80.00,645.71 760.00,645.71 M 80.00,598.57 760.00,598.57 M 80.00,551.43 760.00,551.43 M 80.00,504.29 760.00,504.29 M 80.00,457.14 760.00,457.14 M 80.00,410.00 760.00,410.00 M 80.00,362.86 760.00,362.86 M 80.00,315.71 760.00,315.71 M 80.00,268.57 760.00,268.57 M 80.00,221.43 760.00,221.43 M 80.00,174.29 760.00,174.29 M 80.00,127.14 760.00,127.14 M 80.00,80.00 760.00,80.00" stroke="#ddd" stroke-width="1" fill="none"/>
  <path d="M 76.00,740.00 80.00,740.00 M 76.00,692.86 80.00,692.86 M 76.00,645.71 80.00,645.71 M 76.00,598.57 80.00,598.57 M 76.00,551.43 80.00,551.43 M 76.00,504.29 80.00,504.29 M 76.00,457.14 80.00,457.14 M 76.00,410.00 80.00,410.00 M 76.00,362.86 80.00,362.86 M 76.00,315.71 80.00,315.71 M 76.00,268.57 80.00,268.57 M 76.00,221.43 80.00,221.43 M 76.00,174.29 80.00,174.29 M 76.00,127.14 80.00,127.14 M 76.00,80.00 80.00,80.00" stroke="#777" stroke-width="1" fill="none"/>
  <text x="72.00" y="744.00" text-anchor="end" font-family="sans-serif" font-size="14" fill="#777">37.88</text>
  <text x="72.00" y="696.86" text-anchor="end" font-family="sans-serif" font-size="14" fill="#777">39.94</text>
  <text x="72.00" y="649.71" text-anchor="end" font-family="sans-serif" font-size="14" fill="#777">42</text>
  <text x="72.00" y="602.57" text-anchor="end" font-family="sans-serif" font-size="14" fill="#777">44.06</text>
  <text x="72.00" y="555.43" text-anchor="end" font-family="sans-serif" font-size="14" fill="#777">46.12</text>
  <text x="72.00" y="508.29" text-anchor="end" font-family="sans-serif" font-size="14" fill="#777">48.18</text>
  <text x="72.00" y="461.14" text-anchor="end" font-family="sans-serif" font-size="14" fill="#777">50.24</text>
  <text x="72.00" y="414.00" text-anchor="end" font-family="sans-serif" font-size="14" fill="#777">52.3</text>
  <text x="72.00" y="366.86" text-anchor="end" font-family="sans-serif" font-size="14" fill="#777">54.36</text>
  <text x="72.00" y="319.71" text-anchor="end" font-family="sans-serif" font-size="14" fill="#777">56.42</text>
  <text x="72.00" y="272.57" text-anchor="end" font-family="sans-serif" font-size="14" fill="#777">58.48</text>
  <text x="72.00" y="225.43" text-anchor="end" font-family="sans-serif" font-size="14" fill="#777">60.54</text>
  <text x="72.00" y="178.29" text-anchor="end" font-family="sans-serif" font-size="14" fill="#777">62.6</text>
  <text x="72.00" y="131.14" text-anchor="end" font-family="sans-serif" font-size="14" fill="#777">64.66</text>
  <text x="72.00" y="84.00" text-anchor="end" font-family="sans-serif" font-size="14" fill="#777">66.72</text>
  <path d="M 80.00,740.00 L 760.00,740.00 M 80.00,740.00 L 80.00,80.00" stroke="#777" stroke-width="2" fill="none"/>
  <circle cx="99.25" cy="98.68" r="5" fill="red"/>
  <text x="69.24528301886792" y="88.67924528301887" font-family="sans-serif" font-size="12" fill="red">(1536, 65.9)</text>
  <circle cx="170.52" cy="181.09" r="5" fill="red"/>
  <text x="140.52410901467505" y="199.08768035516118" font-family="sans-serif" font-size="12" fill="red">(3072, 62.3)</text>
  <circle cx="241.80" cy="233.74" r="5" fill="red"/>
  <text x="211.8029350104822" y="223.7375138734741" font-family="sans-serif" font-size="12" fill="red">(4608, 60)</text>
  <circle cx="313.08" cy="318.44" r="5" fill="red"/>
  <text x="283.0817610062893" y="336.43507214206454" font-family="sans-serif" font-size="12" fill="red">(6144, 56.3)</text>
  <circle cx="384.36" cy="384.82" r="5" fill="red"/>
  <text x="354.3605870020965" y="374.8196448390678" font-family="sans-serif" font-size="12" fill="red">(7680, 53.4)</text>
  <circle cx="455.64" cy="421.45" r="5" fill="red"/>
  <text x="425.63941299790366" y="439.44561598224215" font-family="sans-serif" font-size="12" fill="red">(9216, 51.8)</text>
  <circle cx="526.92" cy="506.14" r="5" fill="red"/>
  <text x="496.9182389937107" y="496.14317425083243" font-family="sans-serif" font-size="12" fill="red">(10752, 48.1)</text>
  <circle cx="598.20" cy="579.40" r="5" fill="red"/>
  <text x="568.1970649895178" y="597.395116537181" font-family="sans-serif" font-size="12" fill="red">(12288, 44.9)</text>
  <circle cx="669.48" cy="616.02" r="5" fill="red"/>
  <text x="639.475890985325" y="606.0210876803553" font-family="sans-serif" font-size="12" fill="red">(13824, 43.3)</text>
  <circle cx="740.75" cy="657.23" r="5" fill="red"/>
  <text x="710.7547169811321" y="675.2253052164262" font-family="sans-serif" font-size="12" fill="red">(15360, 41.5)</text>
  <polyline points="99.25,98.68 170.52,181.09 241.80,233.74 313.08,318.44 384.36,384.82 455.64,421.45 526.92,506.14 598.20,579.40 669.48,616.02 740.75,657.23" fill="none" stroke="red" stroke-width="1"/>
  <circle cx="99.25" cy="238.32" r="5" fill="blue"/>
  <text x="69.24528301886792" y="228.31576026637094" font-family="sans-serif" font-size="12" fill="blue">(1536, 59.8)</text>
  <circle cx="170.52" cy="288.68" r="5" fill="blue"/>
  <text x="140.52410901467505" y="306.67647058823536" font-family="sans-serif" font-size="12" fill="blue">(3072, 57.6)</text>
  <circle cx="241.80" cy="332.17" r="5" fill="blue"/>
  <text x="211.8029350104822" y="322.1698113207548" font-family="sans-serif" font-size="12" fill="blue">(4608, 55.7)</text>
  <circle cx="313.08" cy="400.84" r="5" fill="blue"/>
  <text x="283.0817610062893" y="418.8435072142065" font-family="sans-serif" font-size="12" fill="blue">(6144, 52.7)</text>
  <circle cx="384.36" cy="430.60" r="5" fill="blue"/>
  <text x="354.3605870020965" y="420.60210876803563" font-family="sans-serif" font-size="12" fill="blue">(7680, 51.4)</text>
  <circle cx="455.64" cy="490.12" r="5" fill="blue"/>
  <text x="425.63941299790366" y="508.1193118756938" font-family="sans-serif" font-size="12" fill="blue">(9216, 48.8)</text>
  <circle cx="526.92" cy="570.24" r="5" fill="blue"/>
  <text x="496.9182389937107" y="560.2386237513874" font-family="sans-serif" font-size="12" fill="blue">(10752, 45.3)</text>
  <circle cx="598.20" cy="634.33" r="5" fill="blue"/>
  <text x="568.1970649895178" y="652.3340732519423" font-family="sans-serif" font-size="12" fill="blue">(12288, 42.5)</text>
  <circle cx="669.48" cy="654.94" r="5" fill="blue"/>
  <text x="639.475890985325" y="644.9361820199778" font-family="sans-serif" font-size="12" fill="blue">(13824, 41.6)</text>
  <circle cx="740.75" cy="705.30" r="5" fill="blue"/>
  <text x="710.7547169811321" y="723.2968923418424" font-family="sans-serif" font-size="12" fill="blue">(15360, 39.4)</text>
  <polyline points="99.25,238.32 170.52,288.68 241.80,332.17 313.08,400.84 384.36,430.60 455.64,490.12 526.92,570.24 598.20,634.33 669.48,654.94 740.75,705.30" fill="none" stroke="blue" stroke-width="1"/>
  <circle cx="99.25" cy="297.83" r="5" fill="green"/>
  <text x="69.24528301886792" y="287.8329633740289" font-family="sans-serif" font-size="12" fill="green">(1536, 57.2)</text>
  <circle cx="170.52" cy="345.90" r="5" fill="green"/>
  <text x="140.52410901467505" y="363.9045504994451" font-family="sans-serif" font-size="12" fill="green">(3072, 55.1)</text>
  <circle cx="241.80" cy="405.42" r="5" fill="green"/>
  <text x="211.8029350104822" y="395.4217536071033" font-family="sans-serif" font-size="12" fill="green">(4608, 52.5)</text>
  <circle cx="313.08" cy="460.36" r="5" fill="green"/>
  <text x="283.0817610062893" y="478.36071032186464" font-family="sans-serif" font-size="12" fill="green">(6144, 50.1)</text>
  <circle cx="384.36" cy="492.41" r="5" fill="green"/>
  <text x="354.3605870020965" y="482.4084350721421" font-family="sans-serif" font-size="12" fill="green">(7680, 48.7)</text>
  <circle cx="455.64" cy="529.03" r="5" fill="green"/>
  <text x="425.63941299790366" y="547.0344062153164" font-family="sans-serif" font-size="12" fill="green">(9216, 47.1)</text>
  <circle cx="526.92" cy="613.73" r="5" fill="green"/>
  <text x="496.9182389937107" y="603.7319644839068" font-family="sans-serif" font-size="12" fill="green">(10752, 43.4)</text>
  <circle cx="598.20" cy="645.78" r="5" fill="green"/>
  <text x="568.1970649895178" y="663.7796892341843" font-family="sans-serif" font-size="12" fill="green">(12288, 42)</text>
  <circle cx="669.48" cy="703.01" r="5" fill="green"/>
  <text x="639.475890985325" y="693.007769145394" font-family="sans-serif" font-size="12" fill="green">(13824, 39.5)</text>
  <circle cx="740.75" cy="721.32" r="5" fill="green"/>
  <text x="710.7547169811321" y="739.3207547169811" font-family="sans-serif" font-size="12" fill="green">(15360, 38.7)</text>
  <polyline points="99.25,297.83 170.52,345.90 241.80,405.42 313.08,460.36 384.36,492.41 455.64,529.03 526.92,613.73 598.20,645.78 669.48,703.01 740.75,721.32" fill="none" stroke="green" stroke-width="1"/>
  <text x="750" y="30" font-family="sans-serif" font-size="16" fill="red">1k</text>
  <text x="750" y="50" font-family="sans-serif" font-size="16" fill="blue">125k</text>
  <text x="750" y="70" font-family="sans-serif" font-size="16" fill="green">250k</text>
</svg>