<svg width="800" height="800" xmlns="http://www.w3.org/2000/svg" version="1.1">
  <text x="400.0" y="30" text-anchor="middle" font-family="sans-serif" font-size="24" fill="blue">TTFT</text>
  <path d="M 80.00,740.00 80.00,80.00 M 128.57,740.00 128.57,80.00 M 177.14,740.00 177.14,80.00 M 225.71,740.00 225.71,80.00 M 274.29,740.00 274.29,80.00 M 322.86,740.00 322.86,80.00 M 371.43,740.00 371.43,80.00 M 420.00,740.00 420.00,80.00 M 468.57,740.00 468.57,80.00 M 517.14,740.00 517.14,80.00 M 565.71,740.00 565.71,80.00 M 614.29,740.00 614.29,80.00 M 662.86,740.00 662.86,80.00 M 711.43,740.00 711.43,80.00 M 760.00,740.00 760.00,80.00" stroke="#ddd" stroke-width="1" fill="none"/>
  <path d="M 80.00,740.00 80.00,744.00 M 128.57,740.00 128.57,744.00 M 177.14,740.00 177.14,744.00 M 225.71,740.00 225.71,744.00 M 274.29,740.00 274.29,744.00 M 322.86,740.00 322.86,744.00 M 371.43,740.00 371.43,744.00 M 420.00,740.00 420.00,744.00 M 468.57,740.00 468.57,744.00 M 517.14,740.00 517.14,744.00 M 565.71,740.00 565.71,744.00 M 614.29,740.00 614.29,744.00 M 662.86,740.00 662.86,744.00 M 711.43,740.00 711.43,744.00 M 760.00,740.00 760.00,744.00" stroke="#777" stroke-width="1" fill="none"/>
  <text x="80.00" y="756.00" text-anchor="middle" font-family="sans-serif" font-size="14" fill="#777">1413</text>
  <text x="128.57" y="756.00" text-anchor="middle" font-family="sans-serif" font-size="14" fill="#777">1723</text>
  <text x="177.14" y="756.00" text-anchor="middle" font-family="sans-serif" font-size="14" fill="#777">2033</text>
  <text x="225.71" y="756.00" text-anchor="middle" font-family="sans-serif" font-size="14" fill="#777">2343</text>
  <text x="274.29" y="756.00" text-anchor="middle" font-family="sans-serif" font-size="14" fill="#777">2654</text>
  <text x="322.86" y="756.00" text-anchor="middle" font-family="sans-serif" font-size="14" fill="#777">2964</text>
  <text x="371.43" y="756.00" text-anchor="middle" font-family="sans-serif" font-size="14" fill="#777">3274</text>
  <text x="420.00" y="756.00" text-anchor="middle" font-family="sans-serif" font-size="14" fill="#777">3584</text>
  <text x="468.57" y="756.00" text-anchor="middle" font-family="sans-serif" font-size="14" fill="#777">3894</text>
  <text x="517.14" y="756.00" text-anchor="middle" font-family="sans-serif" font-size="14" fill="#777">4204</text>
  <text x="565.71" y="756.00" text-anchor="middle" font-family="sans-serif" font-size="14" fill="#777">4514</text>
  <text x="614.29" y="756.00" text-anchor="middle" font-family="sans-serif" font-size="14" fill="#777">4825</text>
  <text x="662.86" y="756.00" text-anchor="middle" font-family="sans-serif" font-size="14" fill="#777">5135</text>
  <text x="711.43" y="756.00" text-anchor="middle" font-family="sans-serif" font-size="14" fill="#777">5445</text>
  <text x="760.00" y="756.00" text-anchor="middle" font-family="sans-serif" font-size="14" fill="#777">5755</text>
  <path d="M 80.00,740.00 760.00,740.00 M 80.00,692.86 760.00,692.86 M 80.00,645.71 760.00,645.71 M 80.00,598.57 760.00,598.57 M 80.00,551.43 760.00,551.43 M 80.00,504.29 760.00,504.29 M 80.00,457.14 760.00,457.14 M 80.00,410.00 760.00,410.00 M 80.00,362.86 760.00,362.86 M 80.00,315.71 760.00,315.71 M 80.00,268.57 760.00,268.57 M 80.00,221.43 760.00,221.43 M 80.00,174.29 760.00,174.29 M 80.00,127.14 760.00,127.14 M 80.00,80.00 760.00,80.00" stroke="#ddd" stroke-width="1" fill="none"/>
  <path d="M 76.00,740.00 80.00,740.00 M 76.00,692.86 80.00,692.86 M 76.00,645.71 80.00,645.71 M 76.00,598.57 80.00,598.57 M 76.00,551.43 80.00,551.43 M 76.00,504.29 80.00,504.29 M 76.00,457.14 80.00,457.14 M 76.00,410.00 80.00,410.00 M 76.00,362.86 80.00,362.86 M 76.00,315.71 80.00,315.71 M 76.00,268.57 80.00,268.57 M 76.00,221.43 80.00,221.43 M 76.00,174.29 80.00,174.29 M 76.00,127.14 80.00,127.14 M 76.00,80.00 80.00,80.00" stroke="#777" stroke-width="1" fill="none"/>
  <text x="72.00" y="744.00" text-anchor="end" font-family="sans-serif" font-size="14" fill="#777">-15.59</text>
  <text x="72.00" y="696.86" text-anchor="end" font-family="sans-serif" font-size="14" fill="#777">26.02</text>
  <text x="72.00" y="649.71" text-anchor="end" font-family="sans-serif" font-size="14" fill="#777">67.64</text>
  <text x="72.00" y="602.57" text-anchor="end" font-family="sans-serif" font-size="14" fill="#777">109.2</text>
  <text x="72.00" y="555.43" text-anchor="end" font-family="sans-serif" font-size="14" fill="#777">150.9</text>
  <text x="72.00" y="508.29" text-anchor="end" font-family="sans-serif" font-size="14" fill="#777">192.5</text>
  <text x="72.00" y="461.14" text-anchor="end" font-family="sans-serif" font-size="14" fill="#777">234.1</text>
  <text x="72.00" y="414.00" text-anchor="end" font-family="sans-serif" font-size="14" fill="#777">275.7</text>
  <text x="72.00" y="366.86" text-anchor="end" font-family="sans-serif" font-size="14" fill="#777">317.3</text>
  <text x="72.00" y="319.71" text-anchor="end" font-family="sans-serif" font-size="14" fill="#777">358.9</text>
  <text x="72.00" y="272.57" text-anchor="end" font-family="sans-serif" font-size="14" fill="#777">400.5</text>
  <text x="72.00" y="225.43" text-anchor="end" font-family="sans-serif" font-size="14" fill="#777">442.2</text>
  <text x="72.00" y="178.29" text-anchor="end" font-family="sans-serif" font-size="14" fill="#777">483.8</text>
  <text x="72.00" y="131.14" text-anchor="end" font-family="sans-serif" font-size="14" fill="#777">525.4</text>
  <text x="72.00" y="84.00" text-anchor="end" font-family="sans-serif" font-size="14" fill="#777">567</text>
  <path d="M 80.00,740.00 L 760.00,740.00 M 80.00,740.00 L 80.00,80.00" stroke="#777" stroke-width="2" fill="none"/>
  <circle cx="99.25" cy="720.98" r="5" fill="red"/>
  <text x="69.24528301886794" y="710.9808848974211" font-family="sans-serif" font-size="12" fill="red">(1536, 1.2)</text>
  <circle cx="339.81" cy="721.32" r="5" fill="red"/>
  <text x="309.811320754717" y="739.3207547169811" font-family="sans-serif" font-size="12" fill="red">(3072, 0.9)</text>
  <circle cx="580.38" cy="720.75" r="5" fill="red"/>
  <text x="550.3773584905659" y="710.7543050177144" font-family="sans-serif" font-size="12" fill="red">(4608, 1.4)</text>
  <circle cx="740.75" cy="720.75" r="5" fill="red"/>
  <text x="710.754716981132" y="738.7543050177144" font-family="sans-serif" font-size="12" fill="red">(5632, 1.4)</text>
  <polyline points="99.25,720.98 339.81,721.32 580.38,720.75 740.75,720.75" fill="none" stroke="red" stroke-width="1"/>
  <circle cx="99.25" cy="416.91" r="5" fill="blue"/>
  <text x="69.24528301886794" y="406.9106863310538" font-family="sans-serif" font-size="12" fill="blue">(1536, 269.6)</text>
  <circle cx="339.81" cy="528.73" r="5" fill="blue"/>
  <text x="309.811320754717" y="546.7278569663014" font-family="sans-serif" font-size="12" fill="blue">(3072, 170.9)</text>
  <circle cx="580.38" cy="563.51" r="5" fill="blue"/>
  <text x="550.3773584905659" y="553.5078685012771" font-family="sans-serif" font-size="12" fill="blue">(4608, 140.2)</text>
  <circle cx="740.75" cy="578.12" r="5" fill="blue"/>
  <text x="710.754716981132" y="596.1222707423581" font-family="sans-serif" font-size="12" fill="blue">(5632, 127.3)</text>
  <polyline points="99.25,416.91 339.81,528.73 580.38,563.51 740.75,578.12" fill="none" stroke="blue" stroke-width="1"/>
  <circle cx="99.25" cy="98.68" r="5" fill="green"/>
  <text x="69.24528301886794" y="88.67924528301899" font-family="sans-serif" font-size="12" fill="green">(1536, 550.5)</text>
  <circle cx="339.81" cy="318.35" r="5" fill="green"/>
  <text x="309.811320754717" y="336.3484386586471" font-family="sans-serif" font-size="12" fill="green">(3072, 356.6)</text>
  <circle cx="580.38" cy="389.27" r="5" fill="green"/>
  <text x="550.3773584905659" y="379.26794100683856" font-family="sans-serif" font-size="12" fill="green">(4608, 294)</text>
  <circle cx="740.75" cy="418.38" r="5" fill="green"/>
  <text x="710.754716981132" y="436.38345554914724" font-family="sans-serif" font-size="12" fill="green">(5632, 268.3)</text>
  <polyline points="99.25,98.68 339.81,318.35 580.38,389.27 740.75,418.38" fill="none" stroke="green" stroke-width="1"/>
  <text x="750" y="30" font-family="sans-serif" font-size="16" fill="red">1k</text>
  <text x="750" y="50" font-family="sans-serif" font-size="16" fill="blue">125k</text>
  <text x="750" y="70" font-family="sans-serif" font-size="16" fill="green">250k</text>
</svg>